<svg width="40" height="40" viewBox="0 0 40 40" fill="none" xmlns="http://www.w3.org/2000/svg">
<mask id="mask0" mask-type="alpha" maskUnits="userSpaceOnUse" x="6" y="6" width="28" height="28">
<path d="M6 6H33.9995V33.8299H6V6Z" fill="white"/>
</mask>
<g mask="url(#mask0)">
<path fill-rule="evenodd" clip-rule="evenodd" d="M33.9996 19.9997C33.9996 12.2674 27.7314 5.99915 19.9991 5.99915C12.2668 5.99915 5.99854 12.2674 5.99854 19.9997C5.99854 26.9878 11.1183 32.7798 17.8115 33.8302V24.0467H14.2567V19.9997H17.8115V16.9152C17.8115 13.4063 19.9017 11.4681 23.0997 11.4681C24.6315 11.4681 26.2337 11.7416 26.2337 11.7416V15.187H24.4683C22.7291 15.187 22.1867 16.2662 22.1867 17.3734V19.9997H26.0696L25.4489 24.0467H22.1867V33.8302C28.8798 32.7798 33.9996 26.9878 33.9996 19.9997Z" fill="#0A0B09"/>
</g>
<path fill-rule="evenodd" clip-rule="evenodd" d="M25.4487 24.0465L26.0694 19.9995H22.1865V17.3732C22.1865 16.266 22.7289 15.1868 24.4681 15.1868H26.2335V11.7413C26.2335 11.7413 24.6313 11.4679 23.0995 11.4679C19.9015 11.4679 17.8113 13.4061 17.8113 16.915V19.9995H14.2565V24.0465H17.8113V33.8299C18.5241 33.9418 19.2547 34 19.9989 34C20.7431 34 21.4737 33.9418 22.1865 33.8299V24.0465H25.4487Z" fill="#FFFFFE"/>
</svg>
