<svg width="506" height="570" viewBox="0 0 506 570" fill="none" xmlns="http://www.w3.org/2000/svg">
<circle cx="297.512" cy="208.145" r="208.145" fill="white"/>
<path d="M300.058 252.049L400.307 243.561L394.572 325.917L307.399 331.652L300.058 252.049Z" fill="white"/>
<path d="M398.472 245.397L392.737 324.311L308.775 329.817L301.664 253.426L398.472 245.397ZM402.372 241.497L298.452 250.443L306.023 333.487L396.178 327.523L402.372 241.497Z" fill="#040926"/>
<path d="M338.368 313.758C337.451 313.758 336.762 313.07 336.762 312.153L333.78 288.754L323.228 285.313C322.31 285.083 321.851 283.936 322.081 283.248C322.31 282.33 323.457 281.871 324.145 282.101L336.533 286.23L339.745 311.694C340.203 312.611 339.515 313.529 338.368 313.758C338.598 313.758 338.598 313.758 338.368 313.758Z" fill="#040926"/>
<path d="M294.553 107.067C309.234 102.479 352.133 91.2386 388.608 152.26C425.312 213.281 402.142 265.814 402.142 265.814L292.259 260.308C292.259 260.308 288.817 198.369 278.953 158.683C276.889 150.195 271.154 114.408 294.553 107.067Z" fill="#040926"/>
<path d="M211.509 248.838C225.044 256.867 232.155 277.054 232.155 277.054L220.226 280.037C220.226 280.037 211.28 269.025 204.168 269.025C197.057 269.025 211.509 248.838 211.509 248.838Z" fill="white"/>
<path d="M219.309 281.871L218.62 280.954C216.326 277.972 208.986 270.631 203.939 270.631C201.874 270.631 200.956 269.484 200.727 268.795C198.433 264.437 206.462 252.737 210.133 247.69L211.05 246.314L212.427 247.002C226.191 255.261 233.532 275.219 233.761 275.907L234.449 277.742L219.309 281.871ZM203.709 267.19C203.709 267.19 203.939 267.19 203.709 267.19C210.591 267.19 218.162 275.219 220.685 277.972L229.632 275.678C227.567 270.86 221.603 257.784 211.738 251.131C206.921 258.472 203.25 265.584 203.709 267.19Z" fill="#040926"/>
<path d="M290.194 341.286H121.124L116.995 334.404L160.811 307.794L240.184 259.39L269.777 307.794L290.194 341.286Z" fill="white"/>
<path d="M239.496 261.684L268.63 309.629L286.982 339.451H122.271L119.519 334.863L159.205 310.547L239.496 261.684ZM240.643 257.096L157.37 307.794L114.701 333.946L120.207 343.122H293.176L271.842 308.023L240.643 257.096Z" fill="#040926"/>
<path d="M169.299 324.769C168.611 324.769 168.152 324.54 167.923 323.852C167.464 322.934 167.693 322.017 168.611 321.558L230.549 283.706C231.467 283.248 232.385 283.477 232.844 284.165C233.302 285.083 233.073 286 232.155 286.459L170.217 324.311C169.758 324.769 169.528 324.769 169.299 324.769Z" fill="#040926"/>
<path d="M180.31 343.122C179.622 343.122 179.163 342.892 178.934 342.204C178.475 341.286 178.705 340.369 179.622 339.91L241.561 302.059C242.478 301.6 243.396 301.829 243.855 302.517C244.314 303.435 244.084 304.353 243.167 304.811L181.228 342.663C180.999 343.122 180.769 343.122 180.31 343.122Z" fill="#040926"/>
<path d="M214.721 251.131C213.344 247.002 212.197 241.267 216.556 234.614C202.104 232.779 187.881 231.403 173.428 230.715C164.94 251.131 167.693 271.089 171.593 289.212C178.475 320.64 189.028 311.235 189.028 311.235C189.028 311.235 194.992 315.364 200.956 308.253C200.956 308.253 209.674 313.758 212.656 305.729C215.638 297.7 202.792 285.542 207.15 277.513C208.297 275.448 209.674 273.613 211.05 271.778" fill="white"/>
<path d="M185.128 314.217C184.44 314.217 183.751 314.217 182.834 313.758C177.328 311.923 172.969 303.894 169.758 289.441C165.629 270.63 163.105 250.443 171.593 230.026L172.052 228.879H173.199C188.11 229.567 202.792 231.173 216.556 232.779L219.309 233.009L217.932 235.303C214.032 241.267 214.95 246.314 216.326 250.443C216.556 251.361 216.097 252.278 215.179 252.737C214.262 252.966 213.344 252.508 212.885 251.59C211.509 247.461 210.362 242.185 213.574 235.991C201.186 234.385 187.881 233.008 174.346 232.32C166.776 251.59 169.299 270.63 173.199 288.753C176.869 305.729 181.457 309.629 183.981 310.546C186.045 311.235 187.651 309.858 187.881 309.858L188.798 308.941L189.945 309.629C190.404 309.858 194.763 312.611 199.58 306.876L200.498 305.729L201.874 306.417C202.792 307.105 206.003 308.482 208.297 307.794C209.444 307.335 210.362 306.417 211.05 304.811C212.197 301.6 210.133 297.241 208.068 292.653C205.545 287.147 202.792 281.183 205.545 276.365C206.692 274.071 208.297 272.236 209.674 270.401C210.362 269.713 211.28 269.483 212.197 270.172C212.885 270.86 213.115 271.777 212.427 272.695C211.05 274.301 209.674 276.136 208.527 278.201C206.692 281.642 208.986 286.689 211.05 291.506C213.344 296.553 215.638 301.829 214.032 306.188C213.115 308.711 211.509 310.546 209.215 311.235C206.233 312.152 202.792 311.005 201.186 310.317C196.598 314.905 191.78 314.446 189.028 313.299C188.11 313.758 186.963 314.217 185.128 314.217Z" fill="#040926"/>
<path d="M189.945 280.954C188.11 289.442 193.157 296.553 197.974 302.977C198.892 304.124 200.727 302.977 199.809 301.83C195.221 296.095 190.404 289.442 192.01 281.413C192.698 280.036 190.404 279.577 189.945 280.954Z" fill="#040926"/>
<path d="M178.246 288.065C179.163 295.635 180.54 303.434 187.422 307.793C188.569 308.481 189.716 306.417 188.569 305.728C182.375 302.058 181.457 294.488 180.54 288.065C180.31 286.459 178.016 286.459 178.246 288.065Z" fill="#040926"/>
<path d="M164.94 253.196C164.711 210.757 181.228 150.653 223.667 122.666C278.724 86.1911 317.952 103.396 317.952 103.396V153.865C317.952 153.865 270.007 133.907 240.872 180.934C218.62 216.721 226.191 241.726 226.191 241.726L164.94 253.196Z" fill="#040926"/>
<path d="M278.495 151.8C277.577 151.8 276.889 151.112 276.889 150.194L275.283 136.889C275.053 135.971 275.742 135.054 276.889 135.054C277.806 135.054 278.724 135.513 278.724 136.66L280.33 149.965C280.33 150.883 279.642 151.8 278.495 151.8C278.724 151.8 278.495 151.8 278.495 151.8Z" fill="white"/>
<path d="M78.2261 163.271L22.0226 198.14L92.2198 342.893L148.423 308.253L78.2261 163.271Z" fill="#1463FD"/>
<path d="M245.461 237.367C244.543 237.367 243.855 236.679 243.625 235.761L243.396 219.245C243.396 218.327 244.084 217.409 245.002 217.409C245.919 217.409 246.837 218.098 246.837 219.015L247.066 235.532C247.296 236.45 246.608 237.367 245.461 237.367C245.69 237.367 245.461 237.367 245.461 237.367Z" fill="#1463FD"/>
<path d="M255.554 244.249C255.325 244.249 255.095 244.249 254.866 244.02C253.948 243.561 253.719 242.643 253.948 241.726L259.683 229.338C260.142 228.42 261.06 228.191 261.977 228.42C262.895 228.879 263.124 229.797 262.895 230.714L257.16 243.102C256.931 243.79 256.242 244.249 255.554 244.249Z" fill="#1463FD"/>
<path d="M133.053 241.496C128.006 241.496 122.042 239.661 116.766 233.467C115.389 231.632 114.013 229.797 112.636 227.962C107.36 220.162 103.46 214.656 90.3846 220.85C89.4669 221.309 88.5493 220.85 88.0905 219.933C87.6317 219.015 88.0904 218.098 89.0081 217.639C104.607 210.298 110.113 218.327 115.389 225.897C116.536 227.732 117.913 229.568 119.289 231.173C128.924 242.643 141.082 236.22 141.541 235.991C142.459 235.532 143.376 235.761 143.835 236.679C144.294 237.597 144.065 238.514 143.147 238.973C143.376 238.973 139.018 241.496 133.053 241.496Z" fill="#040926"/>
<path d="M130.071 253.196C125.024 253.196 119.06 251.361 113.784 245.167C112.407 243.332 111.031 241.497 109.654 239.661C104.378 231.862 100.478 226.356 87.4023 232.55C86.4847 233.009 85.5671 232.55 85.1083 231.632C84.6495 230.715 85.1084 229.797 86.026 229.338C101.625 221.997 107.131 229.797 112.407 237.597C113.554 239.432 114.931 241.267 116.307 242.873C125.942 254.343 138.1 247.92 138.559 247.69C139.477 247.232 140.394 247.461 140.853 248.379C141.312 249.296 141.082 250.214 140.165 250.673C140.394 250.673 135.806 253.196 130.071 253.196Z" fill="#040926"/>
<path d="M107.819 150.194L102.313 173.823L124.565 165.564L107.819 150.194Z" fill="white"/>
<path d="M100.019 176.576L106.672 146.983L127.777 166.252L100.019 176.576ZM108.737 153.406L104.837 171.07L121.354 164.876L108.737 153.406Z" fill="#040926"/>
<path d="M29.3554 248.955L15.892 235.491L2.42853 248.955L15.892 262.418L29.3554 248.955Z" fill="white"/>
<path d="M15.8288 264.666L0 248.837L15.8288 233.009L31.6575 248.837L15.8288 264.666ZM4.81739 248.837L15.8288 259.848L26.8401 248.837L15.8288 237.826L4.81739 248.837Z" fill="#040926"/>
<path d="M250.507 331.193C250.049 331.193 249.819 330.963 249.36 330.734L242.019 324.311C241.331 323.622 241.102 322.705 241.79 321.787C242.478 321.099 243.396 320.869 244.313 321.558L251.654 327.981C252.343 328.669 252.572 329.587 251.884 330.504C251.425 330.963 250.966 331.193 250.507 331.193Z" fill="#1463FD"/>
<path d="M142.459 201.58C142.229 201.58 142 201.58 141.771 201.351C140.853 200.892 140.624 199.974 141.082 199.057L148.653 183.687C149.112 182.769 150.029 182.54 150.947 182.999C151.864 183.457 152.094 184.375 151.635 185.293L144.065 200.663C143.835 201.351 143.147 201.58 142.459 201.58Z" fill="#1463FD"/>
<path d="M306.023 232.549C305.564 232.549 305.105 232.32 304.876 232.09C304.188 231.402 304.188 230.255 304.876 229.567L319.328 215.115C320.016 214.426 321.163 214.426 321.852 215.115C322.54 215.803 322.54 216.95 321.852 217.638L307.399 232.09C306.711 232.32 306.482 232.549 306.023 232.549Z" fill="#1463FD"/>
<path d="M278.495 273.383C277.577 273.383 276.889 272.695 276.889 271.778L275.971 263.06C275.971 262.143 276.659 261.225 277.577 261.225C278.494 261.225 279.412 261.913 279.412 262.831L280.33 271.548C280.33 272.466 279.642 273.383 278.495 273.383Z" fill="#1463FD"/>
<path d="M329.422 250.443L340.892 241.496L343.186 257.096L329.422 250.443Z" fill="white"/>
<path d="M371.632 342.892H92.2198V569.771H371.632V342.892Z" fill="#1463FD"/>
<path d="M427.147 534.672L371.632 570V342.892L427.147 307.793V534.672Z" fill="#1463FD"/>
<path d="M253.49 484.433H94.0551V568.165H253.49V484.433Z" fill="white"/>
<path d="M251.654 486.039V566.33H95.6609V486.039H251.654ZM255.095 482.598H92.2198V569.771H255.095V482.598Z" fill="#040926"/>
<path d="M204.627 567.707C204.168 567.707 203.939 567.707 203.709 567.477L94.7431 487.875C94.0549 487.416 93.8255 486.269 94.2843 485.581C94.7431 484.892 95.8901 484.663 96.5783 485.122L205.544 564.724C206.233 565.183 206.462 566.33 206.003 567.018C205.774 567.477 205.086 567.707 204.627 567.707Z" fill="#040926"/>
<path d="M142.459 567.706C142 567.706 141.312 567.477 141.083 567.018C140.624 566.33 140.624 565.183 141.541 564.724L249.59 485.122C250.278 484.663 251.425 484.663 251.884 485.58C252.343 486.269 252.343 487.416 251.425 487.874L143.377 567.477C143.147 567.706 142.918 567.706 142.459 567.706Z" fill="#040926"/>
<path d="M371.632 558.989C370.714 558.989 369.797 558.301 369.797 557.154V358.721C369.797 357.803 370.485 356.886 371.632 356.886C372.779 356.886 373.467 357.574 373.467 358.721V557.154C373.467 558.301 372.779 558.989 371.632 558.989Z" fill="white"/>
<path d="M177.558 342.892V343.351C177.558 402.766 139.706 431.212 92.2198 432.818V343.121H177.558V342.892Z" fill="#040926"/>
<path d="M154.158 420.889L134.659 436.717L158.747 447.27L154.158 420.889Z" fill="#040926"/>
<path d="M338.598 393.131H201.645V406.895H338.598V393.131Z" fill="white"/>
<path d="M283.771 432.818H259.913C257.16 432.818 255.095 430.524 255.095 428C255.095 425.247 257.389 423.183 259.913 423.183H283.771C286.524 423.183 288.588 425.477 288.588 428C288.818 430.524 286.524 432.818 283.771 432.818Z" fill="#040926"/>
<path d="M309.923 432.818H301.893C299.141 432.818 297.076 430.524 297.076 428C297.076 425.247 299.37 423.183 301.893 423.183H309.923C312.675 423.183 314.74 425.477 314.74 428C314.969 430.524 312.675 432.818 309.923 432.818Z" fill="#040926"/>
<path d="M333.551 432.818H325.522C322.769 432.818 320.704 430.524 320.704 428C320.704 425.247 322.999 423.183 325.522 423.183H333.551C336.304 423.183 338.368 425.477 338.368 428C338.368 430.524 336.304 432.818 333.551 432.818Z" fill="#040926"/>
<path d="M448.252 376.155H439.306V473.651H448.252V376.155Z" fill="#040926"/>
<path d="M427.147 307.794L396.178 327.522L371.861 343.122H92.2198L147.506 307.794H160.811L116.995 334.404L121.124 341.286H290.194L269.777 307.794H427.147Z" fill="#040926"/>
<path d="M291.112 341.287C307.858 330.964 330.569 325.688 358.556 325.688C366.814 325.688 375.532 326.147 384.708 327.064C387.461 327.294 389.755 327.752 391.819 328.211L371.173 341.287H291.112Z" fill="white"/>
<path d="M358.556 324.082V327.523C366.814 327.523 375.532 327.982 384.478 328.899C385.396 328.899 386.313 329.129 387.231 329.129L370.944 339.452H297.764C313.593 331.423 334.01 327.293 358.556 327.293V324.082ZM358.556 324.082C330.569 324.082 304.646 329.129 285.377 343.122H371.861L396.178 327.752C393.425 326.835 389.754 326.146 384.937 325.458C375.99 324.541 367.273 324.082 358.556 324.082Z" fill="#040926"/>
<path d="M78.4555 285.542H78.226L50.4684 280.495C49.5508 280.266 48.8627 279.348 49.0921 278.431C49.3215 277.513 50.239 276.825 51.1566 277.054L78.9144 282.101C79.832 282.33 80.5201 283.248 80.2907 284.166C80.0613 284.854 79.3731 285.542 78.4555 285.542Z" fill="#040926"/>
<path d="M62.168 296.783H61.9386C61.021 296.553 60.3329 295.635 60.5623 294.718L65.609 266.96C65.8384 266.043 66.7561 265.354 67.6737 265.584C68.5913 265.813 69.2795 266.731 69.0501 267.648L64.0033 295.406C63.5445 296.094 62.8562 296.783 62.168 296.783Z" fill="#040926"/>
<path d="M278.494 323.852C289.264 323.852 297.994 315.122 297.994 304.353C297.994 293.584 289.264 284.854 278.494 284.854C267.725 284.854 258.995 293.584 258.995 304.353C258.995 315.122 267.725 323.852 278.494 323.852Z" fill="white"/>
<path d="M278.494 325.687C266.795 325.687 257.16 316.052 257.16 304.353C257.16 292.653 266.795 283.018 278.494 283.018C290.194 283.018 299.829 292.653 299.829 304.353C299.829 316.052 290.194 325.687 278.494 325.687ZM278.494 286.459C268.63 286.459 260.601 294.489 260.601 304.353C260.601 314.217 268.63 322.246 278.494 322.246C288.359 322.246 296.388 314.217 296.388 304.353C296.388 294.489 288.359 286.459 278.494 286.459Z" fill="#040926"/>
<path d="M124.336 266.043L120.666 307.794L155.076 292.195L124.336 266.043Z" fill="white"/>
<path d="M118.83 310.547L122.96 262.602L158.288 292.653L118.83 310.547ZM125.712 269.484L122.73 305.041L152.094 291.736L125.712 269.484Z" fill="#040926"/>
<path d="M448.252 219.244L392.966 254.343L371.632 343.351L427.147 308.252L448.252 219.244Z" fill="#1463FD"/>
<path d="M378.055 340.827C377.596 340.827 376.908 340.598 376.678 340.139C376.22 339.451 376.449 338.304 377.137 337.845L419.806 310.776C420.494 310.317 421.641 310.546 422.1 311.234C422.559 311.923 422.329 313.07 421.641 313.528L378.973 340.598C378.743 340.598 378.284 340.827 378.055 340.827Z" fill="white"/>
<path d="M321.622 101.102C387.69 98.3494 449.17 117.16 470.504 143.771C493.903 172.905 481.974 230.256 453.299 245.167C446.187 248.837 438.158 249.755 433.8 251.819C420.494 258.013 417.512 257.325 413.154 253.884C413.154 253.884 402.142 260.766 398.931 252.278C398.931 252.278 394.801 263.06 387.002 260.307C379.431 257.554 388.608 236.22 409.483 225.209C430.359 214.197 441.141 186.669 429.441 170.152C417.512 153.635 345.251 133.448 345.251 133.448L321.622 101.102Z" fill="white"/>
<path d="M389.525 262.602C388.607 262.602 387.69 262.372 386.543 262.143C384.249 261.455 382.872 259.39 382.643 256.637C381.955 247.92 392.507 232.321 408.795 223.833C420.036 217.868 428.753 206.627 431.735 194.469C433.8 185.752 432.423 177.493 428.065 171.3C416.595 155.471 345.709 135.513 344.792 135.283L344.333 135.054L318.181 99.4966L321.393 99.2671C386.313 96.5143 449.399 114.867 471.881 142.624C483.351 157.077 487.48 179.329 482.662 202.269C478.304 222.915 467.751 239.432 454.217 246.543C449.858 248.837 445.27 249.984 441.37 251.131C438.617 251.82 436.323 252.508 434.717 253.196C422.1 259.161 417.971 259.161 413.153 255.72C411.089 256.867 406.272 258.931 402.372 257.555C401.225 257.096 400.078 256.408 399.389 255.49C397.325 259.161 393.884 262.602 389.525 262.602ZM346.627 132.072C353.968 134.136 419.577 153.177 431.047 169.235C436.094 176.117 437.47 185.293 435.176 195.157C432.194 208.233 422.559 220.392 410.401 226.815C394.572 235.073 385.625 249.526 386.084 256.408C386.313 258.472 387.231 258.702 387.69 258.931C393.654 260.996 397.325 252.049 397.325 251.82L398.931 247.69L400.536 251.82C400.995 253.425 401.913 254.343 403.289 254.573C406.271 255.49 410.86 253.426 412.236 252.508L413.383 251.82L414.3 252.508C417.742 255.261 420.036 256.408 433.112 250.214C435.176 249.296 437.47 248.608 440.223 247.92C444.123 246.773 448.482 245.626 452.381 243.561C464.998 236.909 475.092 221.309 479.221 201.81C483.81 179.787 480.139 158.682 469.128 144.918C447.793 118.308 387.46 100.873 324.834 102.708L346.627 132.072Z" fill="#040926"/>
<path d="M429.671 170.153C436.094 178.87 435.864 191.028 431.276 201.81C446.188 207.316 468.669 212.592 483.121 219.245C494.362 195.616 494.591 160.977 476.927 142.395C442.517 106.838 387.919 98.1203 321.851 100.873L353.05 154.783C352.821 154.783 417.742 153.865 429.671 170.153Z" fill="#040926"/>
<path d="M412.924 232.091C406.96 236.221 402.142 241.497 398.931 247.92C398.243 249.297 400.307 250.444 400.995 249.067C404.207 242.873 408.565 237.826 414.301 234.156C415.218 233.238 414.071 231.403 412.924 232.091Z" fill="#040926"/>
<path d="M425.541 236.909C420.724 240.35 417.053 244.708 414.301 249.985C413.612 251.361 415.677 252.508 416.365 251.132C418.889 246.314 422.33 242.185 426.688 238.973C427.835 238.056 426.688 236.22 425.541 236.909Z" fill="#040926"/>
<path d="M384.937 158.453C384.708 158.453 384.708 158.453 384.478 158.453L375.073 155.471C374.155 155.241 373.696 154.324 373.926 153.406C374.155 152.488 375.073 152.03 375.99 152.259L385.396 155.241C386.313 155.471 386.772 156.388 386.543 157.306C386.313 157.994 385.625 158.453 384.937 158.453Z" fill="#040926"/>
<path d="M68.3628 448.876C67.904 448.876 67.4452 448.647 67.2158 448.417L30.7409 411.942C30.0527 411.254 30.0527 410.107 30.7409 409.419C31.4292 408.731 32.5761 408.731 33.2643 409.419L69.7393 445.894C70.4275 446.582 70.4275 447.729 69.7393 448.417C69.2805 448.876 68.8216 448.876 68.3628 448.876Z" fill="#040926"/>
<path d="M31.888 448.876C31.4292 448.876 30.9703 448.647 30.7409 448.417C30.0527 447.729 30.0527 446.582 30.7409 445.894L67.2158 409.419C67.904 408.731 69.0511 408.731 69.7393 409.419C70.4275 410.107 70.4275 411.254 69.7393 411.942L33.2643 448.417C32.8055 448.876 32.3468 448.876 31.888 448.876Z" fill="#040926"/>
<path d="M68.3618 480.304H31.887C30.9694 480.304 30.0516 479.616 30.0516 478.469C30.0516 477.322 30.74 476.634 31.887 476.634H68.3618C69.2795 476.634 70.197 477.322 70.197 478.469C70.197 479.616 69.2795 480.304 68.3618 480.304Z" fill="#040926"/>
<path d="M330.11 75.8682C329.422 74.2623 328.504 72.6564 327.357 71.0506C327.357 71.0506 327.357 71.0507 327.357 70.8213C316.805 55.6807 297.535 51.0927 284 60.4982C277.577 65.0862 273.906 72.1977 272.989 79.9974C271.842 88.4852 275.053 97.2025 278.495 104.773C286.294 122.207 303.958 130.007 321.851 115.096C325.751 111.884 328.734 107.755 330.798 102.938C337.68 101.561 341.809 96.5143 342.498 90.3205C343.186 83.209 337.91 75.1799 330.11 75.8682Z" fill="white"/>
<path d="M302.582 124.731C300.746 124.731 298.911 124.501 297.076 124.042C288.588 121.978 281.018 115.325 276.659 105.461C273.448 98.3492 269.777 88.9437 271.154 79.7676C272.301 70.8209 276.43 63.4801 282.853 59.1214C289.276 54.7628 297.305 52.9276 305.334 54.5334C314.511 56.1392 322.998 61.8743 328.733 69.9034C329.651 71.2798 330.569 72.6562 331.257 74.2621C334.469 74.2621 337.451 75.6385 339.974 78.1619C343.186 81.3736 344.792 86.191 344.103 90.779C343.186 97.8905 338.598 103.167 331.945 104.773C329.881 109.361 326.669 113.49 322.769 116.701C316.116 121.978 309.234 124.731 302.582 124.731ZM299.599 57.2862C294.323 57.2862 289.047 58.8921 284.688 61.8743C278.953 65.7741 275.512 72.1974 274.365 80.2265C273.218 88.4849 276.43 96.9729 279.641 104.084C283.541 112.802 290.194 118.995 297.764 120.831C305.105 122.437 312.905 120.142 320.475 113.949C324.146 110.966 327.128 107.067 328.963 102.479L329.422 101.561L330.339 101.331C336.074 100.184 339.974 96.0552 340.662 90.0907C341.121 86.6497 339.745 82.7499 337.451 80.2265C336.074 78.85 333.78 77.2442 330.339 77.4736H329.192L328.733 76.3266C327.816 74.4914 327.128 73.115 326.21 71.7386C320.934 64.1683 313.364 59.1215 304.876 57.5157C303.041 57.5157 301.205 57.2862 299.599 57.2862Z" fill="#040926"/>
<path d="M299.724 92.6293C300.406 91.5617 300.094 90.1433 299.026 89.461C297.959 88.7787 296.54 89.0911 295.858 90.1586C295.176 91.2261 295.488 92.6446 296.555 93.3269C297.623 94.0091 299.041 93.6968 299.724 92.6293Z" fill="#040926"/>
<path d="M289.506 108.902C287.212 104.314 285.606 99.4964 284.459 94.4496C284.229 93.0731 286.524 92.6143 286.753 93.9907C287.671 98.8082 289.276 103.396 291.57 107.984C292.259 109.131 290.194 110.278 289.506 108.902Z" fill="#040926"/>
<path d="M323.228 92.3849C323.687 87.1086 327.816 82.5207 333.322 81.8324C334.698 81.603 335.386 83.8971 333.78 84.1265C329.422 84.5853 325.981 88.0263 325.522 92.3849C325.293 93.9907 322.999 93.7613 323.228 92.3849Z" fill="#040926"/>
<path d="M320.934 81.8323C319.328 87.5674 311.987 79.7678 297.994 77.0149C291.8 75.8679 265.419 85.044 261.289 76.0973C255.096 63.0213 272.53 55.451 283.771 60.2685C282.624 55.451 288.129 48.3396 295.47 52.01C315.199 42.1457 333.092 54.9923 330.798 77.0149C330.798 77.2443 322.769 79.9971 320.934 81.8323Z" fill="#040926"/>
</svg>
