<svg width="41" height="40" viewBox="0 0 41 40" fill="none" xmlns="http://www.w3.org/2000/svg">
<mask id="mask0" mask-type="alpha" maskUnits="userSpaceOnUse" x="5" y="6" width="30" height="28">
<path d="M5.99951 6H34.0028V34H5.99951V6Z" fill="white"/>
</mask>
<g mask="url(#mask0)">
<path fill-rule="evenodd" clip-rule="evenodd" d="M20.0012 6C16.1986 6 15.7217 6.01612 14.2283 6.08426C12.738 6.15223 11.7202 6.38895 10.8296 6.7351C9.90882 7.09286 9.12798 7.57163 8.34953 8.35002C7.57114 9.12847 7.09238 9.90931 6.73461 10.83C6.38846 11.7207 6.15174 12.7385 6.08377 14.2288C6.01563 15.7222 5.99951 16.199 5.99951 20.0017C5.99951 23.8043 6.01563 24.2811 6.08377 25.7745C6.15174 27.2648 6.38846 28.2827 6.73461 29.1733C7.09238 30.094 7.57114 30.8749 8.34953 31.6533C9.12798 32.4317 9.90882 32.9105 10.8296 33.2683C11.7202 33.6144 12.738 33.8511 14.2283 33.9191C15.7217 33.9872 16.1986 34.0033 20.0012 34.0033C23.8038 34.0033 24.2806 33.9872 25.774 33.9191C27.2644 33.8511 28.2822 33.6144 29.1728 33.2683C30.0935 32.9105 30.8744 32.4317 31.6528 31.6533C32.4312 30.8749 32.91 30.094 33.2678 29.1733C33.6139 28.2827 33.8506 27.2648 33.9186 25.7745C33.9867 24.2811 34.0028 23.8043 34.0028 20.0017C34.0028 16.199 33.9867 15.7222 33.9186 14.2288C33.8506 12.7385 33.6139 11.7207 33.2678 10.83C32.91 9.90931 32.4312 9.12847 31.6528 8.35002C30.8744 7.57163 30.0935 7.09286 29.1728 6.7351C28.2822 6.38895 27.2644 6.15223 25.774 6.08426C24.2806 6.01612 23.8038 6 20.0012 6ZM20.0012 8.52282C23.7398 8.52282 24.1826 8.5371 25.6591 8.60447C27.0242 8.66671 27.7656 8.89481 28.259 9.08656C28.9125 9.34056 29.3789 9.64397 29.8689 10.134C30.3589 10.6239 30.6623 11.0903 30.9163 11.7439C31.108 12.2373 31.3361 12.9786 31.3984 14.3438C31.4657 15.8202 31.48 16.2631 31.48 20.0017C31.48 23.7403 31.4657 24.1831 31.3984 25.6595C31.3361 27.0247 31.108 27.7661 30.9163 28.2594C30.6623 28.913 30.3589 29.3794 29.8689 29.8694C29.3789 30.3594 28.9125 30.6628 28.259 30.9168C27.7656 31.1085 27.0242 31.3366 25.6591 31.3989C24.1829 31.4662 23.7401 31.4805 20.0012 31.4805C16.2623 31.4805 15.8196 31.4662 14.3433 31.3989C12.9782 31.3366 12.2368 31.1085 11.7434 30.9168C11.0898 30.6628 10.6234 30.3594 10.1335 29.8694C9.64354 29.3794 9.34007 28.913 9.08608 28.2594C8.89433 27.7661 8.66623 27.0247 8.60398 25.6595C8.53661 24.1831 8.52233 23.7403 8.52233 20.0017C8.52233 16.2631 8.53661 15.8202 8.60398 14.3438C8.66623 12.9786 8.89433 12.2373 9.08608 11.7439C9.34007 11.0903 9.64348 10.6239 10.1335 10.134C10.6234 9.64397 11.0898 9.34056 11.7434 9.08656C12.2368 8.89481 12.9782 8.66671 14.3433 8.60447C15.8197 8.5371 16.2626 8.52282 20.0012 8.52282Z" fill="#0A0B09"/>
</g>
<path fill-rule="evenodd" clip-rule="evenodd" d="M20.0011 24.6689C17.4234 24.6689 15.3339 22.5793 15.3339 20.0017C15.3339 17.424 17.4234 15.3345 20.0011 15.3345C22.5787 15.3345 24.6683 17.424 24.6683 20.0017C24.6683 22.5793 22.5787 24.6689 20.0011 24.6689ZM20.0011 12.8116C16.0301 12.8116 12.811 16.0307 12.811 20.0017C12.811 23.9727 16.0301 27.1917 20.0011 27.1917C23.9721 27.1917 27.1911 23.9727 27.1911 20.0017C27.1911 16.0307 23.9721 12.8116 20.0011 12.8116Z" fill="#0A0B09"/>
<path fill-rule="evenodd" clip-rule="evenodd" d="M29.1554 12.5275C29.1554 13.4555 28.4032 14.2077 27.4752 14.2077C26.5473 14.2077 25.795 13.4555 25.795 12.5275C25.795 11.5996 26.5473 10.8473 27.4752 10.8473C28.4032 10.8473 29.1554 11.5996 29.1554 12.5275Z" fill="#0A0B09"/>
</svg>
