<svg width="175" height="40" viewBox="0 0 175 40" fill="none" xmlns="http://www.w3.org/2000/svg">
<path d="M56.1485 12.5723H49.7009L41.4589 23.5813V12.5723H36.2629V36.4023H41.4589V31.7667L44.832 27.3578L49.9887 36.3063H56.2117L48.3796 22.7244L56.1485 12.5723Z" fill="#040926"/>
<path d="M68.6838 20.6552C67.6023 20.0577 66.2388 19.7583 64.5933 19.7569C63.2868 19.7309 61.9903 19.9883 60.7928 20.5113C59.755 20.9567 58.8629 21.6841 58.2177 22.611C57.6024 23.5408 57.2971 24.6414 57.3455 25.7552H61.4513C61.4295 25.443 61.4854 25.1302 61.614 24.8448C61.7426 24.5595 61.9399 24.3104 62.1883 24.1199C62.7029 23.7114 63.4195 23.5079 64.3382 23.5094C64.8418 23.4958 65.343 23.5833 65.8122 23.7667C66.1993 23.9205 66.5261 24.196 66.7432 24.5516C66.9718 24.9683 67.0826 25.4394 67.0637 25.9144V26.1651L62.8947 26.5184C61.1199 26.6637 59.6873 27.15 58.5971 27.9771C57.5069 28.8042 56.9618 30.007 56.9618 31.5857C56.9618 33.1469 57.4531 34.3926 58.4358 35.3229C59.4184 36.2533 60.7659 36.7177 62.4783 36.7162C63.695 36.7162 64.7212 36.4757 65.557 35.9945C66.3929 35.5134 66.938 34.9094 67.1924 34.1826L67.5129 36.2998H71.8738V26.9414C71.9022 25.6421 71.6337 24.3534 71.0888 23.1736C70.5723 22.1018 69.7306 21.2205 68.6838 20.6552V20.6552ZM67.0855 30.3079C67.0855 31.1627 66.9024 31.7819 66.5404 32.1679C66.2111 32.5314 65.7805 32.7881 65.3041 32.9048C64.9425 32.9978 64.5718 33.0512 64.1986 33.064C63.4486 33.064 62.8904 32.9157 62.5306 32.617C62.3488 32.465 62.2049 32.2728 62.1103 32.0556C62.0157 31.8383 61.973 31.6021 61.9855 31.3655C61.9759 31.144 62.0222 30.9236 62.1202 30.7247C62.2181 30.5258 62.3645 30.3547 62.5459 30.2273C62.9209 29.9598 63.5997 29.7832 64.5824 29.6974L67.0855 29.4358V30.3079Z" fill="#040926"/>
<path d="M80.7481 12.1232H75.7767V36.3063H80.7481V12.1232Z" fill="#040926"/>
<path d="M95.6449 20.6552C94.5663 20.0577 93.2035 19.7583 91.5565 19.7569C90.2501 19.7309 88.9535 19.9883 87.7561 20.5113C86.7213 20.9578 85.8322 21.6852 85.1897 22.611C84.5715 23.5399 84.2624 24.6403 84.3066 25.7552H88.4124C88.3904 25.4427 88.4465 25.1297 88.5755 24.8442C88.7045 24.5588 88.9025 24.3099 89.1515 24.1199C89.6647 23.7114 90.3806 23.5079 91.2993 23.5094C91.8035 23.4959 92.3054 23.5833 92.7754 23.7667C93.1619 23.9207 93.488 24.1962 93.7043 24.5516C93.9329 24.9683 94.0437 25.4394 94.0248 25.9144V26.1651L89.8558 26.5184C88.0809 26.6637 86.6484 27.15 85.5582 27.9771C84.468 28.8042 83.9229 30.007 83.9229 31.5857C83.9229 33.1469 84.4149 34.3926 85.399 35.3229C86.3831 36.2533 87.7299 36.7177 89.4393 36.7162C90.6575 36.7162 91.6837 36.4757 92.5181 35.9945C93.3525 35.5134 93.8976 34.9094 94.1534 34.1826L94.474 36.2998H98.8348V26.9414C98.8639 25.6418 98.5946 24.3528 98.0477 23.1736C97.5318 22.1021 96.6909 21.2208 95.6449 20.6552ZM94.0575 30.3079C94.0575 31.1627 93.8758 31.7826 93.5124 32.1679C93.1835 32.5308 92.7538 32.7874 92.2783 32.9048C91.9159 32.998 91.5445 33.0514 91.1706 33.064C90.4234 33.064 89.8674 32.915 89.5026 32.617C89.3216 32.4644 89.1782 32.272 89.0837 32.055C88.9892 31.8379 88.946 31.6019 88.9575 31.3655C88.9469 31.1436 88.993 30.9227 89.0914 30.7235C89.1898 30.5244 89.3373 30.3536 89.52 30.2273C89.8929 29.9591 90.5732 29.7912 91.5565 29.6974L94.0575 29.4358V30.3079Z" fill="#040926"/>
<path d="M107.624 20.2714H102.653V36.3085H107.624V20.2714Z" fill="#040926"/>
<path d="M105.154 12.1559C104.783 12.1478 104.414 12.2147 104.07 12.3526C103.726 12.4904 103.413 12.6965 103.15 12.9583C102.883 13.2151 102.673 13.5244 102.532 13.8667C102.392 14.209 102.324 14.5768 102.332 14.9468C102.329 15.3184 102.399 15.687 102.539 16.031C102.68 16.375 102.887 16.6876 103.15 16.9503C103.413 17.2131 103.726 17.4208 104.07 17.5612C104.414 17.7017 104.782 17.7721 105.154 17.7683C105.521 17.7739 105.886 17.7043 106.225 17.5637C106.564 17.423 106.871 17.2144 107.127 16.9506C107.393 16.6902 107.603 16.3781 107.743 16.0334C107.884 15.6888 107.953 15.319 107.945 14.9468C107.953 14.5768 107.885 14.209 107.745 13.8667C107.604 13.5244 107.394 13.2151 107.127 12.9583C106.869 12.6986 106.561 12.4937 106.222 12.3558C105.883 12.2179 105.52 12.1499 105.154 12.1559V12.1559Z" fill="#040926"/>
<path d="M114.198 12.1559C113.827 12.1478 113.459 12.2147 113.114 12.3526C112.77 12.4904 112.457 12.6965 112.194 12.9583C111.928 13.2151 111.717 13.5244 111.577 13.8667C111.436 14.209 111.368 14.5768 111.377 14.9468C111.373 15.3184 111.443 15.687 111.584 16.031C111.724 16.375 111.932 16.6876 112.195 16.9503C112.457 17.2131 112.77 17.4208 113.114 17.5612C113.458 17.7017 113.827 17.7721 114.198 17.7683C114.564 17.7724 114.926 17.7021 115.263 17.5615C115.601 17.4209 115.906 17.2131 116.16 16.9506C116.426 16.6902 116.636 16.3781 116.777 16.0334C116.918 15.6888 116.986 15.319 116.978 14.9468C116.987 14.5768 116.919 14.209 116.778 13.8667C116.637 13.5244 116.427 13.2151 116.16 12.9583C115.904 12.6999 115.598 12.4958 115.261 12.3579C114.924 12.2201 114.562 12.1514 114.198 12.1559V12.1559Z" fill="#040926"/>
<path d="M116.669 20.2714H111.697V36.3085H116.669V20.2714Z" fill="#040926"/>
<path d="M128.759 26.7822L125.905 26.0757C125.478 25.9808 125.068 25.8243 124.686 25.6113C124.539 25.5201 124.42 25.3909 124.341 25.2373C124.262 25.0837 124.226 24.9115 124.237 24.7391C124.229 24.5461 124.266 24.3539 124.347 24.1783C124.428 24.0028 124.549 23.849 124.701 23.7296C125.082 23.4689 125.538 23.3404 125.998 23.3636C126.459 23.3869 126.9 23.5606 127.252 23.8582C127.425 24.0313 127.557 24.2401 127.641 24.4699C127.724 24.6997 127.756 24.9449 127.734 25.1883H132.191C132.128 23.5137 131.528 22.1902 130.39 21.2177C129.252 20.2453 127.792 19.7583 126.012 19.7568C124.918 19.7385 123.834 19.9619 122.837 20.411C121.937 20.8142 121.166 21.4577 120.609 22.2709C120.052 23.0987 119.763 24.0775 119.78 25.0749C119.769 26.113 120.121 27.1224 120.774 27.9291C121.434 28.762 122.556 29.3929 124.141 29.8217L126.962 30.5587C127.303 30.621 127.62 30.7765 127.878 31.0079C128.059 31.1981 128.157 31.4521 128.151 31.7143C128.152 31.965 128.066 32.2083 127.909 32.4033C127.732 32.6183 127.499 32.7792 127.235 32.8678C126.89 32.9841 126.526 33.0387 126.162 33.0291C125.434 33.0291 124.884 32.8678 124.509 32.5473C124.324 32.3851 124.177 32.1833 124.08 31.9569C123.983 31.7305 123.938 31.4851 123.949 31.239H119.488C119.499 31.9982 119.676 32.7459 120.005 33.43C120.335 34.1142 120.809 34.7184 121.396 35.2008C122.604 36.2184 124.213 36.7271 126.223 36.7271C128.168 36.7271 129.75 36.246 130.97 35.2837C132.19 34.3214 132.799 33.0175 132.797 31.372C132.797 30.1742 132.456 29.1908 131.772 28.4219C131.089 27.6529 130.085 27.1063 128.759 26.7822Z" fill="#040926"/>
<path d="M155.41 19.7242C154.151 19.6909 152.915 20.0623 151.883 20.7838C151.223 21.2464 150.697 21.8743 150.356 22.6045C149.979 21.8985 149.459 21.2785 148.83 20.7838C147.921 20.0774 146.676 19.7242 145.093 19.7242C144.107 19.7198 143.137 19.9803 142.286 20.4786C141.684 20.8207 141.157 21.2821 140.738 21.8348L140.529 20.278H135.911V36.3129H140.882V27.5497C140.882 26.6543 141.021 25.9544 141.299 25.45C141.534 24.9911 141.911 24.6202 142.374 24.3925C142.8 24.1919 143.265 24.0877 143.736 24.0872C144.085 24.0702 144.433 24.1256 144.758 24.2498C145.084 24.374 145.381 24.5644 145.629 24.8089C146.1 25.2901 146.336 26.0329 146.336 27.0373V36.3063H151.209V27.5497C151.209 26.6325 151.348 25.9217 151.627 25.4173C151.858 24.9611 152.229 24.5905 152.685 24.3598C153.105 24.1582 153.566 24.0538 154.032 24.0545C154.384 24.0392 154.735 24.097 155.064 24.2242C155.392 24.3515 155.691 24.5453 155.94 24.7937C156.423 25.285 156.663 26.0329 156.662 27.0373V36.3063H161.472V25.8185C161.472 23.9811 160.981 22.5057 159.998 21.3922C159.015 20.2787 157.486 19.7227 155.41 19.7242Z" fill="#040926"/>
<path d="M170.436 31.928C169.882 31.3868 169.139 31.0837 168.364 31.0837C167.59 31.0837 166.847 31.3868 166.293 31.928C166.012 32.1938 165.79 32.5149 165.64 32.8711C165.49 33.2273 165.415 33.6108 165.421 33.9972C165.417 34.3786 165.493 34.7566 165.643 35.1072C165.793 35.4577 166.014 35.7733 166.293 36.0338C166.846 36.576 167.59 36.8798 168.364 36.8798C169.139 36.8798 169.883 36.576 170.436 36.0338C170.717 35.7752 170.942 35.4602 171.094 35.1094C171.246 34.7586 171.323 34.3796 171.319 33.9972C171.325 33.6097 171.249 33.2253 171.097 32.8688C170.945 32.5124 170.72 32.1918 170.436 31.928Z" fill="#040926"/>
<path d="M26.7933 12.6072C24.8562 18.0662 21.7256 23.0242 17.6295 27.1199C13.5334 31.2156 8.57513 34.3458 3.11597 36.2824V12.6072H26.7933Z" fill="#1463FD"/>
<path d="M26.7932 36.2823H10.0758L10.2938 36.0643C13.6996 34.1768 16.8252 31.8232 19.5803 29.0717L26.7932 36.2823Z" fill="#FFB347"/>
<path d="M6.56759 10.0191C8.47387 10.0191 10.0192 8.47375 10.0192 6.56747C10.0192 4.66119 8.47387 3.11584 6.56759 3.11584C4.66131 3.11584 3.11597 4.66119 3.11597 6.56747C3.11597 8.47375 4.66131 10.0191 6.56759 10.0191Z" fill="#1463FD"/>
</svg>
